REM DIRINDEX 1\2,1\3,1\4,1\5
REM DIRNAME cjc044,folder01,folder02,folder03,folder04
TITLE ""
FILE "1800_110.mp3" MP3
  TRACK 01 AUDIO
    TITLE "2:cjc044_3109"
    INDEX 01 00:00:00
  TRACK 02 AUDIO
    TITLE "0:"
    INDEX 01 00:01:24
  TRACK 03 AUDIO
    TITLE "3:cjc044_3110"
    INDEX 01 00:02:06
  TRACK 04 AUDIO
    TITLE "0:"
    INDEX 01 00:03:31
  TRACK 05 AUDIO
    TITLE "4:cjc044_3111"
    INDEX 01 00:04:11
  TRACK 06 AUDIO
    TITLE "0:"
    INDEX 01 00:05:40
  TRACK 07 AUDIO
    TITLE "5:cjc044_3112"
    INDEX 01 00:06:24
  TRACK 08 AUDIO
    TITLE "0:"
    INDEX 01 00:09:34
  TRACK 09 AUDIO
    TITLE "2:cjc044_3113"
    INDEX 01 00:11:15
  TRACK 10 AUDIO
    TITLE "0:"
    INDEX 01 00:12:46
  TRACK 11 AUDIO
    TITLE "3:cjc044_3114"
    INDEX 01 00:13:26
  TRACK 12 AUDIO
    TITLE "0:"
    INDEX 01 00:15:07
  TRACK 13 AUDIO
    TITLE "4:cjc044_3115"
    INDEX 01 00:15:64
  TRACK 14 AUDIO
    TITLE "0:"
    INDEX 01 00:17:21
  TRACK 15 AUDIO
    TITLE "5:cjc044_3116"
    INDEX 01 00:17:65
  TRACK 16 AUDIO
    TITLE "0:"
    INDEX 01 00:20:26
  TRACK 17 AUDIO
    TITLE "2:cjc044_3117"
    INDEX 01 00:22:11
  TRACK 18 AUDIO
    TITLE "0:"
    INDEX 01 00:23:26
  TRACK 19 AUDIO
    TITLE "3:cjc044_3118"
    INDEX 01 00:24:12
  TRACK 20 AUDIO
    TITLE "0:"
    INDEX 01 00:25:31
  TRACK 21 AUDIO
    TITLE "4:cjc044_3119"
    INDEX 01 00:26:09
  TRACK 22 AUDIO
    TITLE "0:"
    INDEX 01 00:27:22
  TRACK 23 AUDIO
    TITLE "5:cjc044_3120"
    INDEX 01 00:28:02
  TRACK 24 AUDIO
    TITLE "0:"
    INDEX 01 00:30:44
  TRACK 25 AUDIO
    TITLE "2:cjc044_3121"
    INDEX 01 00:32:27
  TRACK 26 AUDIO
    TITLE "0:"
    INDEX 01 00:33:38
  TRACK 27 AUDIO
    TITLE "3:cjc044_3122"
    INDEX 01 00:34:24
  TRACK 28 AUDIO
    TITLE "0:"
    INDEX 01 00:35:35
  TRACK 29 AUDIO
    TITLE "4:cjc044_3123"
    INDEX 01 00:36:19
  TRACK 30 AUDIO
    TITLE "0:"
    INDEX 01 00:37:32
  TRACK 31 AUDIO
    TITLE "5:cjc044_3124"
    INDEX 01 00:38:12
  TRACK 32 AUDIO
    TITLE "0:"
    INDEX 01 00:42:49
  TRACK 33 AUDIO
    TITLE "2:cjc044_3125"
    INDEX 01 00:44:30
  TRACK 34 AUDIO
    TITLE "0:"
    INDEX 01 00:45:41
  TRACK 35 AUDIO
    TITLE "3:cjc044_3126"
    INDEX 01 00:46:27
  TRACK 36 AUDIO
    TITLE "0:"
    INDEX 01 00:48:08
  TRACK 37 AUDIO
    TITLE "4:cjc044_3127"
    INDEX 01 00:48:65
  TRACK 38 AUDIO
    TITLE "0:"
    INDEX 01 00:50:01
  TRACK 39 AUDIO
    TITLE "5:cjc044_3128"
    INDEX 01 00:50:48
  TRACK 40 AUDIO
    TITLE "0:"
    INDEX 01 00:53:23
  TRACK 41 AUDIO
    TITLE "2:cjc044_3129"
    INDEX 01 00:55:12
  TRACK 42 AUDIO
    TITLE "0:"
    INDEX 01 00:56:10
  TRACK 43 AUDIO
    TITLE "3:cjc044_3130"
    INDEX 01 00:56:74
  TRACK 44 AUDIO
    TITLE "0:"
    INDEX 01 00:58:69
  TRACK 45 AUDIO
    TITLE "4:cjc044_3131"
    INDEX 01 00:59:59
  TRACK 46 AUDIO
    TITLE "0:"
    INDEX 01 01:00:59
  TRACK 47 AUDIO
    TITLE "5:cjc044_3132"
    INDEX 01 01:01:33
  TRACK 48 AUDIO
    TITLE "0:"
    INDEX 01 01:05:22
  TRACK 49 AUDIO
    TITLE "2:cjc044_3133"
    INDEX 01 01:07:02
  TRACK 50 AUDIO
    TITLE "0:"
    INDEX 01 01:08:23
  TRACK 51 AUDIO
    TITLE "3:cjc044_3134"
    INDEX 01 01:09:05
  TRACK 52 AUDIO
    TITLE "0:"
    INDEX 01 01:10:26
  TRACK 53 AUDIO
    TITLE "4:cjc044_3135"
    INDEX 01 01:11:03
  TRACK 54 AUDIO
    TITLE "0:"
    INDEX 01 01:12:26
  TRACK 55 AUDIO
    TITLE "5:cjc044_3136"
    INDEX 01 01:13:06
  TRACK 56 AUDIO
    TITLE "0:"
    INDEX 01 01:15:56
  TRACK 57 AUDIO
    TITLE "2:cjc044_3137"
    INDEX 01 01:17:39
  TRACK 58 AUDIO
    TITLE "0:"
    INDEX 01 01:18:35
  TRACK 59 AUDIO
    TITLE "3:cjc044_3138"
    INDEX 01 01:19:23
  TRACK 60 AUDIO
    TITLE "0:"
    INDEX 01 01:20:30
  TRACK 61 AUDIO
    TITLE "4:cjc044_3139"
    INDEX 01 01:21:10
  TRACK 62 AUDIO
    TITLE "0:"
    INDEX 01 01:22:05
  TRACK 63 AUDIO
    TITLE "5:cjc044_3140"
    INDEX 01 01:22:52
  TRACK 64 AUDIO
    TITLE "0:"
    INDEX 01 01:25:47
  TRACK 65 AUDIO
    TITLE "2:cjc044_3141"
    INDEX 01 01:27:28
  TRACK 66 AUDIO
    TITLE "0:"
    INDEX 01 01:28:43
  TRACK 67 AUDIO
    TITLE "3:cjc044_3142"
    INDEX 01 01:29:25
  TRACK 68 AUDIO
    TITLE "0:"
    INDEX 01 01:30:44
  TRACK 69 AUDIO
    TITLE "4:cjc044_3143"
    INDEX 01 01:31:28
  TRACK 70 AUDIO
    TITLE "0:"
    INDEX 01 01:32:47
  TRACK 71 AUDIO
    TITLE "5:cjc044_3144"
    INDEX 01 01:33:29
  TRACK 72 AUDIO
    TITLE "0:"
    INDEX 01 01:37:17
  TRACK 73 AUDIO
    TITLE "2:cjc044_3145"
    INDEX 01 01:38:73
  TRACK 74 AUDIO
    TITLE "0:"
    INDEX 01 01:40:17
  TRACK 75 AUDIO
    TITLE "3:cjc044_3146"
    INDEX 01 01:40:68
  TRACK 76 AUDIO
    TITLE "0:"
    INDEX 01 01:42:02
  TRACK 77 AUDIO
    TITLE "4:cjc044_3147"
    INDEX 01 01:42:51
  TRACK 78 AUDIO
    TITLE "0:"
    INDEX 01 01:43:70
  TRACK 79 AUDIO
    TITLE "5:cjc044_3148"
    INDEX 01 01:44:52
  TRACK 80 AUDIO
    TITLE "0:"
    INDEX 01 01:48:26
